<?xml version="1.0" encoding="UTF-8"?>
<!-- Created with Inkscape (http://www.inkscape.org/) -->
<svg width="105mm" height="100mm" version="1.1" viewBox="0 0 210 200" xmlns="http://www.w3.org/2000/svg" xmlns:cc="http://creativecommons.org/ns#" xmlns:dc="http://purl.org/dc/elements/1.1/" xmlns:rdf="http://www.w3.org/1999/02/22-rdf-syntax-ns#" xmlns:xlink="http://www.w3.org/1999/xlink">
 <defs>
  <linearGradient id="linearGradient4838" x1="-94.087" x2="51.611" y1="-155.93" y2="-155.93" gradientUnits="userSpaceOnUse">
   <stop stop-color="#000000" offset="0"/>
   <stop stop-color="#000000" stop-opacity="0" offset="1"/>
  </linearGradient>
  <linearGradient id="linearGradient4846" x1="148.48" x2="372.95" y1="-113.42" y2="-41.604" gradientUnits="userSpaceOnUse">
   <stop stop-color="#000000" offset="0"/>
   <stop stop-color="#000000" stop-opacity="0" offset="1"/>
  </linearGradient>
  <linearGradient id="linearGradient4854" x1="-15.887" x2="146.08" y1="32.703" y2="32.703" gradientUnits="userSpaceOnUse">
   <stop stop-color="#000000" offset="0"/>
   <stop stop-color="#000000" stop-opacity="0" offset="1"/>
  </linearGradient>
  <linearGradient id="linearGradient4862" x1="207.35" x2="306.05" y1="118.35" y2="118.35" gradientUnits="userSpaceOnUse">
   <stop stop-color="#000000" offset="0"/>
   <stop stop-color="#000000" stop-opacity="0" offset="1"/>
  </linearGradient>
  <linearGradient id="linearGradient4870" x1="-41.432" x2="120.54" y1="236.84" y2="236.84" gradientUnits="userSpaceOnUse">
   <stop stop-color="#000000" offset="0"/>
   <stop stop-color="#000000" stop-opacity="0" offset="1"/>
  </linearGradient>
  <linearGradient id="linearGradient4878" x1="-175.86" x2="-95.391" y1="62.252" y2="62.252" gradientUnits="userSpaceOnUse">
   <stop stop-color="#000000" offset="0"/>
   <stop stop-color="#000000" stop-opacity="0" offset="1"/>
  </linearGradient>
 </defs>
 <metadata>
  <rdf:RDF>
   <cc:Work rdf:about="">
    <dc:format>image/svg+xml</dc:format>
    <dc:type rdf:resource="http://purl.org/dc/dcmitype/StillImage"/>
    <dc:title/>
   </cc:Work>
  </rdf:RDF>
 </metadata>
 <g transform="translate(0,-97)">
  <g transform="matrix(.26458 0 0 .26458 83.533 103.48)" fill="#ffffff">
   <g transform="translate(-11.546 330.17)" stroke="#000000" stroke-linejoin="round" stroke-width="2">
    <g fill="#ffffff">
     <path d="m82.599 274.04 51.873-8.5542c45.329-10.469 77.968-30.064 108.12-60.395 6.7641-6.8507 17.627-22.98 17.627-22.98l-51.873 8.5542-88.81 45.965z"/>
     <path d="m305.05 92.724 7.6641-43.264c4.6586-29.586-1.5715-62.148-8.1841-85.818-5.6103-26.685-17.849-54.473-32.34-75.044l-7.5767 58.768 16.271 98.667z"/>
     <path d="m201.35-174.87c-70.089-35.733-125.34-41.968-197.73-30.03l46.994 23.569 51.961 9.5772 46.906 5.4379z"/>
     <path d="m-85.193-158.94c-53.456 46.215-80.489 120.99-89.663 178.78l36.938-37.41 44.832-89.388z"/>
     <path d="m-158.59 118.51 7.5174 26.861c8.0626 15.629 18.641 29.538 28.917 43.727 7.2338 8.7858 15.52 16.429 23.888 24.085 24.951 25.92 76.672 49.639 100.78 56.456l-30.97-12.649-11.975-44.65-71.159-70.26z"/>
    </g>
    <g>
     <path d="m-40.432 212.34c4.3093 9.5104 5.4249 21.579 7.0382 27.682 4.93 18.649 3.1704 19.228 19.73 25.137 16.871 6.0205 46.691 10.599 64.511 9.9831l31.752-1.0969 36.938-37.41s-23.107-15.091-35.402-21.293c-13.091-6.604-40.636-16.843-40.636-16.843s-24.377 1.2489-36.416 3.1137c-16.046 2.4853-47.515 10.727-47.515 10.727z" fill="url(#linearGradient4870)"/>
     <path d="m-137.92-17.571-36.938 37.41c0.31103 28.66 0.39095 57.128 16.271 98.667l46.994 23.569s12.404-26.311 14.534-40.197c2.1908-14.286-1.7612-43.903-1.7612-43.903s-8.837-23.775-14.56-35.062c-7.1364-14.075-24.54-40.484-24.54-40.484z" fill="url(#linearGradient4878)"/>
     <path d="m221.12 106.57s-6.9594 29.146-9.0849 44.279c-1.8878 13.441-3.6878 39.822-3.6878 39.822l51.873-8.5542 12.632-15.143 13.369-22.789 10.579-24.642 8.2511-26.813-24.165-46.69s-24.289 13.382-34 23.029c-10.76 10.689-25.766 37.502-25.766 37.502z" fill="url(#linearGradient4862)"/>
     <path d="m188.58-90.769s22.944 15.232 35.165 21.516c13.127 6.7504 40.773 17.279 40.773 17.279 4.9491-24.37 8.0938-34.12 10.742-50.297 1.2962-7.9169-10.954-21.456-17.253-30.206-18.038-21.903-40.497-36.286-56.655-42.393l-51.873 8.5542s11.788 27.953 18.802 41.383c6.1318 11.741 20.298 34.164 20.298 34.164z" fill="url(#linearGradient4846)" opacity=".988"/>
     <path d="m-9.1554-120.8s19.346-15.894 29.378-25.951c10.032-10.058 30.389-34.58 30.389-34.58l-46.994-23.569c-32.284 7.0367-61.411 23.829-88.81 45.965l-7.8939 51.977z" fill="url(#linearGradient4838)"/>
     <path d="m56.272 114.39s32.976-12.048 48.489-20.157c14.142-7.3924 40.321-25.808 40.321-25.808s-2.0415-33.858-4.8115-50.56c-2.6973-16.262-11.46-48.108-11.46-48.108s-28.846-15.292-44.674-17.911c-17.847-2.9527-54.192 2.8958-54.192 2.8958l-44.832 89.388c6.8098 9.1477 9.6249 19.394 15.126 27.859 5.4238 8.3463 13.537 14.935 19.632 20.598 10.659 9.9053 24.611 12.802 36.401 21.803z" fill="url(#linearGradient4854)"/>
     <path d="m-14.887 44.134-83.931 13.841s-2.2115 30.533-4.5712 45.639c-2.0232 12.952-8.2014 38.462-8.2014 38.462l71.159 70.26s30.569-8.0443 46.156-10.495c12.488-1.9636 37.776-3.346 37.776-3.346l12.773-84.101c-15.24-7.0536-21.84-13.152-32.75-23.857-13.317-13.068-29.997-31.379-38.409-46.403z" fill="#ffffff"/>
    </g>
    <path d="m56.272 114.39-12.773 84.101c13.773 6.9505 27.962 11.236 41.755 18.146 11.558 5.7899 22.72 14.208 34.282 19.99l88.81-45.965 3.767-38.124 9.0056-45.977-76.038-38.136s-26.448 17.761-40.54 25.119c-15.536 8.1117-48.27 20.846-48.27 20.846z" fill-opacity="0"/>
    <g fill="#ffffff">
     <path d="m145.08 68.429 76.038 38.136s18.94-25.155 30.072-36.211c9.0776-9.0159 29.694-24.32 29.694-24.32l-16.271-98.667s-24.614-9.2902-36.382-15.119c-13.696-6.7835-39.655-23.017-39.655-23.017l-59.766 60.531s8.1485 31.787 10.832 47.953c2.7842 16.772 5.4391 50.715 5.4391 50.715z"/>
     <path d="m128.81-30.238 59.766-60.531s-13.656-20.844-19.46-31.847c-7.4516-14.125-19.64-43.699-19.64-43.699s-31.34-3.1038-46.906-5.4379c-17.417-2.6117-51.961-9.5772-51.961-9.5772s-19.319 22.762-29.825 33.346c-9.4966 9.5679-29.942 27.186-29.942 27.186l39.1 75.546s36.911-0.32762 55.039 2.6273c14.984 2.4424 43.827 12.388 43.827 12.388z"/>
     <path d="m29.944-45.253-39.1-75.546-83.931 13.841-44.832 89.388s17.422 27.517 24.761 42.026c5.4857 10.844 14.339 33.521 14.339 33.521l83.931-13.841z"/>
    </g>
   </g>
   <g transform="matrix(-1.064 .051751 -.056706 -1.0836 142.94 637.56)" fill="#000000" aria-label="THE FOOTBALL STATS CO.">
    <path d="m-189.1 237.96-1.2402 9.8613 10.869 1.3691 1.2402-9.8633zm-14.197 27.893c-7.6185 0.19894-13.342 1.6725-17.172 4.4199-3.8302 2.7275-5.678 6.6778-5.543 11.85 0.13453 5.1519 2.1865 8.9992 6.1543 11.543 3.9673 2.5239 9.7604 3.6853 17.379 3.4863 7.5986-0.19842 13.312-1.6612 17.143-4.3887 3.8297-2.7474 5.6775-6.6957 5.543-11.848-0.13505-5.1718-2.187-9.021-6.1543-11.545-3.9678-2.5438-9.751-3.716-17.35-3.5176zm0.24024 9.1602c5.3309-0.13921 9.2126 0.27653 11.646 1.248 2.414 0.97204 3.6517 2.5917 3.7109 4.8594 0.0587 2.2478-1.0932 3.9209-3.4531 5.0176-2.3799 1.0972-6.2355 1.7143-11.566 1.8535-5.3508 0.13973-9.2325-0.27601-11.646-1.248-2.4339-0.97152-3.6796-2.5804-3.7383-4.8281-0.0592-2.2676 1.1006-3.9496 3.4805-5.0469 2.36-1.0967 6.2156-1.7158 11.566-1.8555zm544.31 5.0469-0.85156 11.279-36.758-2.7793-0.66406 8.7812 36.758 2.7793-0.85352 11.279 7.6797 0.58008 2.3691-31.34zm-521.9 23.992-9.6348 1.7344c1.6388 1.2415 2.9085 2.5091 3.8086 3.8027 0.87701 1.2776 1.4488 2.6601 1.7168 4.1484 0.5712 3.1725-0.2508 5.7982-2.4648 7.875-2.2372 2.0607-5.8228 3.5353-10.758 4.4238-4.9546 0.89205-8.8292 0.76-11.625-0.39454-2.8189-1.1706-4.5148-3.3411-5.0859-6.5137-0.26797-1.4883-0.20451-2.9874 0.19141-4.4941 0.3728-1.5228 1.112-3.1516 2.2148-4.8867l-9.6348 1.7363c-0.46524 1.4586-0.73696 2.9832-0.81445 4.5742-0.0775 1.591 0.0323 3.2182 0.33203 4.8828 1.0648 5.9142 3.8274 10.078 8.2852 12.49s10.377 2.9523 17.76 1.623c7.3634-1.3257 12.714-3.8955 16.051-7.7109 3.3365-3.8154 4.473-8.6815 3.4082-14.596-0.29971-1.6646-0.76273-3.2176-1.3867-4.6621-0.624-1.4445-1.4115-2.7893-2.3633-4.0332zm481.65 11.273l-1.9941 8.5762 19.305 4.4844-2.4922 10.729-19.305-4.4844-1.9922 8.5762 43.406 10.084 1.9922-8.5762-16.541-3.8438 2.4922-10.729 16.543 3.8438 1.9922-8.5762zm-9.2891 36.557-10.348 25.758 7.2012 2.8926 7.0664-17.588 10.828 4.3516-6.3965 15.924 7.1992 2.8945 6.3984-15.926 8.918 3.582-7.0644 17.588 7.2012 2.8926 10.348-25.758zm-457.06 25.801c-1.7982 0.19449-3.6926 0.8166-5.6816 1.8652-2.9219 1.5405-4.9464 3.5646-6.0762 6.0723-1.1298 2.5077-1.4423 5.6528-0.93359 9.4336l0.50195 4.0215c0.36245 2.7782 0.38659 4.7216 0.0723 5.832-0.3412 1.1022-1.0571 1.9403-2.1484 2.5156-1.4082 0.7424-2.7552 0.81131-4.041 0.20704s-2.427-1.8471-3.4199-3.7305c-0.89087-1.6898-1.482-3.5596-1.7754-5.6094-0.29306-2.0498-0.29187-4.2217 6e-3 -6.5156l-7.6035 4.0098c0.12759 2.2047 0.46658 4.3193 1.0176 6.3457 0.53339 2.0357 1.2785 3.9604 2.2344 5.7734 2.1066 3.9956 4.785 6.5988 8.0332 7.8106s6.6573 0.87602 10.23-1.0078c2.7811-1.4662 4.6332-3.3309 5.5547-5.5938 0.90386-2.2536 1.0694-5.7372 0.49609-10.451l-0.5664-4.5938c-0.19482-1.6069-0.0304-3.0004 0.49609-4.1777 0.5089-1.1681 1.3539-2.0618 2.5332-2.6836 1.5666-0.82592 3.069-0.94368 4.5059-0.35156 1.4193 0.60139 2.635 1.8626 3.6465 3.7812 1.0022 1.901 1.6564 4.0173 1.9648 6.3516 0.29911 2.3167 0.25657 4.9032-0.12695 7.7598l8.0527-4.2441c-0.0498-2.3132-0.36117-4.5686-0.93359-6.7637-0.56411-2.222-1.3606-4.3099-2.3906-6.2637-2.5056-4.7525-5.353-7.7828-8.541-9.0938-1.6075-0.65965-3.3092-0.89371-5.1074-0.69922zm29.215 36.609-29.621 21.938-6.7324-9.0898-6.1894 4.582 18.705 25.258 6.1894-4.584-6.7324-9.0898 29.621-21.938zm393.74 3.0078-5.5859 6.8086 15.023 12.322-10.941 13.338 6.002 4.9219 10.939-13.338 7.4316 6.0957-12.02 14.654 6 4.9199 17.604-21.461zm-379.44 16.041-22.871 40.094 7.6465 7.5938 39.937-23.141-6.248-6.2051-9.668 5.9219-8.3633-8.3086 5.8125-9.75zm354.51 16c-3.2923 0.0112-6.3746 1.3092-9.248 3.8945-3.846 3.4604-5.4412 7.5177-4.7852 12.174 0.6412 4.6694 3.5038 9.8298 8.5879 15.48 5.0974 5.6655 9.9338 9.0622 14.51 10.191 4.5612 1.1425 8.7653-0.0162 12.611-3.4766 3.8312-3.4471 5.4264-7.5044 4.7852-12.174-0.65599-4.6561-3.5335-9.817-8.6309-15.482-5.0841-5.6507-9.9056-9.047-14.467-10.189-1.144-0.2823-2.2658-0.42168-3.3633-0.41797zm-357.98 6.2988 5.9082 5.8691-15.795 10.016zm356.79 2.1894c1.0095-0.10523 2.1059 0.1128 3.2891 0.6543 2.3796 1.0978 5.3531 3.6294 8.9199 7.5938 3.5801 3.9791 5.7834 7.2008 6.6113 9.668 0.8412 2.482 0.42545 4.4765-1.2461 5.9805-1.6863 1.5172-3.7181 1.7267-6.0977 0.62891-2.3663-1.083-5.3398-3.6146-8.9199-7.5938-3.5668-3.9643-5.7701-7.188-6.6113-9.6699-0.82788-2.4672-0.39921-4.4593 1.2871-5.9766 0.83577-0.75196 1.7581-1.1799 2.7676-1.2852zm-316.58 9.0391-21.746 29.766-9.1328-6.6738-4.543 6.2188 25.379 18.539 4.541-6.2168-9.1328-6.6738 21.744-29.766zm286.01 6.2207c-2.1651 0.25629-4.3232 1.0905-6.4766 2.5059-4.3234 2.8416-6.5117 6.6146-6.5645 11.316-0.0694 4.7127 1.9832 10.244 6.1582 16.596 4.1859 6.3686 8.4549 10.456 12.809 12.262 4.3371 1.8164 8.6689 1.3045 12.992-1.5371 4.3067-2.8307 6.4931-6.6037 6.5625-11.316 0.0528-4.7018-2.0133-10.237-6.1992-16.605-4.175-6.352-8.4305-10.436-12.768-12.252-2.1768-0.90276-4.3486-1.225-6.5137-0.96875zm0.79687 8.2617c1.0138 0.048 2.0643 0.42905 3.1524 1.1426 2.1871 1.4437 4.7467 4.3933 7.6758 8.8496 2.94 4.473 4.6332 7.991 5.0801 10.555 0.45778 2.5803-0.25384 4.4896-2.1328 5.7246-1.8956 1.2459-3.9359 1.1468-6.123-0.29687-2.1762-1.4271-4.7338-4.3766-7.6738-8.8496-2.929-4.4564-4.6242-7.9763-5.082-10.557-0.44686-2.5637 0.27821-4.467 2.1738-5.7129 0.93949-0.61751 1.9159-0.90348 2.9297-0.85547zm-260.03 4.4512c-0.92923-0.0163-1.8145 0.0691-2.6562 0.25391-3.3937 0.74775-6.1272 3.1152-8.2012 7.1055-1.5234 2.9309-2.0337 5.7486-1.5332 8.4531s2.035 5.4661 4.6074 8.2832l2.7031 3.0195c1.8809 2.0765 3.0083 3.6603 3.3828 4.752 0.34764 1.1001 0.23694 2.1983-0.33203 3.293-0.73415 1.4125-1.8002 2.2365-3.2012 2.4726-1.401 0.23612-3.0464-0.13721-4.9355-1.1191-1.695-0.88098-3.2472-2.0804-4.6562-3.5976-1.4091-1.5173-2.6446-3.3027-3.707-5.3574l-3.9648 7.627c1.3611 1.739 2.8456 3.2835 4.4531 4.6348 1.5983 1.369 3.3064 2.5274 5.125 3.4727 4.0079 2.0832 7.691 2.6969 11.051 1.8418 3.3598-0.85508 5.9711-3.0741 7.834-6.6582 1.45-2.7896 1.9091-5.3771 1.377-7.7617-0.54136-2.367-2.3897-5.3239-5.5469-8.8711l-3.084-3.4531c-1.0757-1.2095-1.7325-2.4473-1.9707-3.7148-0.24739-1.2499-0.06407-2.4674 0.55078-3.6504 0.81675-1.5714 1.9857-2.5233 3.5039-2.8555 1.509-0.31452 3.2239 0.029 5.1484 1.0293 1.9068 0.99111 3.6528 2.3571 5.2363 4.0996 1.5659 1.7334 3.0058 3.8832 4.3184 6.4492l4.1973-8.0762c-1.359-1.8725-2.8979-3.5477-4.6191-5.0254-1.7297-1.5045-3.5754-2.7665-5.5352-3.7852-3.5753-1.8583-6.7572-2.8126-9.5449-2.8613zm225.08 6.4844-8.0039 3.668 15.354 33.512-10.283 4.7109 3.207 7.002 28.572-13.092-3.207-7.002-10.285 4.7129zm-24.359 10.533-13.809 3.9277c-5.6076 1.5957-9.3898 3.6758-11.35 6.2402-1.9598 2.5644-2.3521 5.9149-1.1758 10.049 0.95849 3.3684 2.5376 5.7525 4.7363 7.1543 2.1796 1.4072 4.9511 1.809 8.3164 1.2031-2.666 1.0276-4.4858 2.5175-5.4609 4.4707s-1.0713 4.3085-0.28711 7.0644c1.0238 3.5981 2.9985 5.9536 5.9219 7.0664 2.9097 1.1374 6.7462 1.0279 11.512-0.32812l13.809-3.9297zm-139.06 6.7773-1.3496 7.6406 18.545 3.2754-6.3984 36.242 8.6699 1.5312 7.75-43.883zm132.81 2.3262 3.6113 12.688-5.627 1.6016c-2.6028 0.74063-4.6134 0.7653-6.0312 0.0723-1.4178-0.69303-2.4563-2.1979-3.1152-4.5137-0.64807-2.2775-0.55605-4.0307 0.27344-5.2598 0.81036-1.2236 2.5632-2.2204 5.2617-2.9883zm-26.572 0.0703-8.7363 1.0996-1.2891 11.264-11.697 1.4746-4.1016-10.584-8.7363 1.0996 17.506 42.709 10.691-1.3457zm-69.922 3.6309-0.1875 7.7578 18.828 0.45898-0.89648 36.791 8.8027 0.21484 1.084-44.551zm102.03 15.732 2.834 9.9629-5.627 1.6016c-2.1052 0.59908-3.7315 0.6264-4.8789 0.084-1.1611-0.51783-1.9912-1.6572-2.4922-3.418-0.50103-1.7608-0.40198-3.1547 0.29883-4.1816 0.68167-1.0215 2.0948-1.8373 4.2383-2.4473zm-42.969 0.41601-1.8359 18.613-6.4258-17.572z" stroke-width="1.5282"/>
   </g>
   <ellipse cx="61.63" cy="274.57" rx="242.37" ry="241.52" fill="none"/>
  </g>
 </g>
</svg>
